<svg width="45" height="47" viewBox="0 0 45 47" fill="none" xmlns="http://www.w3.org/2000/svg">
<path d="M6.5625 8.8125H10.7264C11.431 8.8125 11.7833 8.8125 12.0469 9.00502C12.3104 9.19754 12.4175 9.53317 12.6317 10.2044L14.0625 14.6875" stroke="white" stroke-linecap="round"/>
<path d="M32.8125 34.2708H14.9252C13.674 34.2708 13.0485 34.2708 12.7489 33.8607C12.4493 33.4506 12.6395 32.8547 13.0199 31.6628L13.174 31.1797C13.6025 29.8372 13.8167 29.1659 14.3438 28.7809C14.8709 28.3958 15.5755 28.3958 16.9847 28.3958H27.1875" stroke="white" stroke-linecap="round" stroke-linejoin="round"/>
<path d="M28.5664 28.3958H18.6198C17.32 28.3958 16.6702 28.3958 16.1648 28.0569C15.6594 27.718 15.4127 27.1168 14.9192 25.9143L12.0108 18.8264C11.2422 16.9532 10.8579 16.0167 11.3036 15.3521C11.7492 14.6875 12.7616 14.6875 14.7862 14.6875H33.3765C35.6332 14.6875 36.7616 14.6875 37.1973 15.4226C37.6331 16.1578 37.0915 17.1476 36.0084 19.1274L32.0756 26.3157C31.5208 27.3297 31.2434 27.8367 30.7718 28.1163C30.3002 28.3958 29.7223 28.3958 28.5664 28.3958Z" stroke="white" stroke-linecap="round"/>
<ellipse cx="31.875" cy="39.1667" rx="1.875" ry="1.95833" fill="white"/>
<ellipse cx="16.875" cy="39.1667" rx="1.875" ry="1.95833" fill="white"/>
</svg>
